<svg xmlns="http://www.w3.org/2000/svg" xmlns:xlink="http://www.w3.org/1999/xlink" width="600" viewBox="0 0 600 450" height="450" version="1.0"><defs><clipPath id="a"><path d="M 231 76 L 369 76 L 369 375 L 231 375 Z M 231 76"/></clipPath><clipPath id="b"><path d="M 356.230469 75.515625 L 339.554688 75.515625 L 339.554688 79.023438 C 339.554688 83 336.28125 86.273438 332.304688 86.273438 L 267.929688 86.273438 C 263.953125 86.273438 260.679688 83 260.679688 79.023438 L 260.679688 75.515625 L 243.847656 75.515625 C 236.753906 75.515625 230.988281 81.285156 230.988281 88.375 L 230.988281 361.933594 C 230.988281 369.027344 236.753906 374.792969 243.847656 374.792969 L 356.230469 374.792969 C 363.324219 374.792969 369.089844 369.027344 369.089844 361.933594 L 369.089844 88.375 C 369.167969 81.285156 363.402344 75.515625 356.230469 75.515625 Z M 356.230469 75.515625"/></clipPath></defs><path d="M 355.175781 67.488281 L 244.589844 67.488281 C 232.605469 67.488281 222.878906 77.226562 222.878906 89.222656 L 222.878906 360.542969 C 222.878906 372.539062 232.605469 382.277344 244.589844 382.277344 L 355.175781 382.277344 C 367.160156 382.277344 376.886719 372.539062 376.886719 360.542969 L 376.886719 89.222656 C 376.886719 77.226562 367.160156 67.488281 355.175781 67.488281 Z M 318.367188 77.460938 C 319.457031 77.460938 320.3125 78.316406 320.3125 79.40625 C 320.3125 80.496094 319.457031 81.355469 318.367188 81.355469 C 317.277344 81.355469 316.421875 80.496094 316.421875 79.40625 C 316.421875 78.316406 317.355469 77.460938 318.367188 77.460938 Z M 289.648438 78.082031 L 308.328125 78.082031 C 309.027344 78.082031 309.648438 78.628906 309.648438 79.40625 C 309.648438 80.1875 309.027344 80.730469 308.328125 80.730469 L 289.648438 80.730469 C 288.949219 80.730469 288.328125 80.1875 288.328125 79.40625 C 288.328125 78.628906 288.949219 78.082031 289.648438 78.082031 Z M 368.949219 361.789062 C 368.949219 368.878906 363.191406 374.644531 356.109375 374.644531 L 243.8125 374.644531 C 236.730469 374.644531 230.972656 368.878906 230.972656 361.789062 L 230.972656 88.367188 C 230.972656 81.277344 236.730469 75.511719 243.8125 75.511719 L 260.542969 75.511719 L 260.542969 79.019531 C 260.542969 82.992188 263.8125 86.261719 267.78125 86.261719 L 332.140625 86.261719 C 336.109375 86.261719 339.378906 82.992188 339.378906 79.019531 L 339.378906 75.511719 L 356.03125 75.511719 C 363.113281 75.511719 368.871094 81.277344 368.871094 88.367188 L 368.871094 361.789062 Z M 368.949219 361.789062"/><g clip-path="url(#a)"><g clip-path="url(#b)"><g transform="matrix(.19706 0 0 .19715 230.644 75.517)"></svg>
