<svg xmlns="http://www.w3.org/2000/svg" data-name="Layer 1" width="180.98097" height="332.79601" viewBox="0 0 180.98097 332.79601" xmlns:xlink="http://www.w3.org/1999/xlink"><path d="M651.47742,518.58673c-6.38574-4.14941-14.91992-2.41577-21.88672.65967s-13.624,7.40137-21.19727,8.19873c-16.15918,1.70142-29.12793-12.76563-37.748-26.53857-8.18848-13.08375-16.75879-28.0647-31.07227-33.05152a199.19458,199.19458,0,0,0,22.22754,84.01148c6.37891,12.25756,14.27832,24.09838,25.40137,32.29589,11.124,8.19751,25.9541,12.28394,39.09472,8.01026,19.06446-6.2002,29.02735-27.36939,32.18946-47.16528C660.00964,535.4693,659.577,523.84943,651.47742,518.58673Z" transform="translate(-509.50952 -283.60199)" fill="#96b9db"/><path d="M688.45648,442.5394c-4.6639-.27855-9.323-.62285-13.98-.992-.04073-1.49595-.08629-2.9919-.10977-4.488q-.15739-4.34548-.33757-8.69061c-.61785,4.05985-1.24329,8.46194-1.86045,12.98777-25.7177-2.10121-51.36153-5.17941-77.16414-6.0387a467.24038,467.24038,0,0,0-68.11524,3.21143c-.04073-.54087-.087-1.07916-.12633-1.62055-.06351.55071-.118,1.1047-.17949,1.65628q-8.55219.98528-17.074,2.178,8.30574,1.028,16.62807,2.06911c-5.07879,51.687,1.28885,106.84538,37.0868,147.00573a105.12287,105.12287,0,0,0,25.8537,19.58753c10.63735,5.848,23.30981,9.34332,35.15456,5.15024,26.96513-9.26929,39.855-52.59654,45.19685-78.083,2.99881-14.57691,5.65521-29.30415,6.39663-44.19034.45562-15.537-.68136-31.06174-1.226-46.59305,4.65975-.77058,9.31053-1.59812,13.942-2.52248C690.69937,442.70992,691.57955,442.74685,688.45648,442.5394Zm-21.47422,40.01831c-2.34092,16.89592-7.506,33.21973-12.76841,49.39373-6.04733,17.97854-8.62158,25.62744-18.98763,42.65729-6.70522,9.58373-5.1064,9.16125-12.90994,16.11394a21.697,21.697,0,0,1-2.1925,1.36911c-.54605.29184-.96163.50705-1.29714.67911a21.71545,21.71545,0,0,1-2.62119.79009c-.40247.07369-.73866.13634-1.01479.18915-.72416.05834-1.44763.14169-2.17525.14-.72278-.016-1.44625-.03883-2.16833-.07974a31.79989,31.79989,0,0,1-4.83579-1.41311q-.31481-.12244-.62959-.24455c-1.81351-.8643-5.70354-2.71215-6.98134-3.521A102.31464,102.31464,0,0,1,580.587,576.702c-12.8264-11.71876-15.33577-15.849-24.61109-29.57286-19.49779-30.25371-25.68042-66.52075-28.74205-104.18243,38.59864,4.77366,77.43268,9.06029,116.31573,6.25115a266.57086,266.57086,0,0,0,27.97026-3.02591C669.745,459.53939,668.09163,473.37869,666.98226,482.55771Z" transform="translate(-509.50952 -283.60199)"/><path d="M624.3072,309.41974c-5.27069-10.88018-13.71072-20.57575-25.41671-24.55242-12.13261-4.30371-25.42292,2.86989-30.97045,13.97564-6.0342,11.2514-7.4273,24.2195-8.20185,36.7746-1.333,31.09108,6.87848,60.08683,9.21941,89.789,3.63391-26.06735,2.01646-63.44616,5.027-82.72115,3.04575-23.558,10.59524-38.46851,15.13833-38.82955.14911-.03.2285-.04695.34862-.07162.10079-.00052.20088.005.301.0069.4142.09319.83531.15636,1.24053.28459.419.13841.8284.30392,1.244.45286.5716.266,1.11835.58126,1.67268.88121,7.20019,4.86892,3.89142,2.39718,9.3706,8.70839a100.973,100.973,0,0,1,16.1331,43.51985c3.859,21.56862,4.7847,39.5028,7.243,62.93843.08284.7535.1574,1.50786.23195,2.26067.71933-4.17876,1.33925-8.37427,1.99024-12.56407C633.48519,377.09144,640.02611,340.64112,624.3072,309.41974Z" transform="translate(-509.50952 -283.60199)"/><path d="M601.52688,477.35812c-14.90845.3695-14.86979,22.2108,0,22.62086C616.436,499.60948,616.39667,477.768,601.52688,477.35812Z" transform="translate(-509.50952 -283.60199)"/><path d="M607.10063,545.26108a126.9199,126.9199,0,0,0-1.73964-25.92014c-1.28954,10.48359-3.44131,22.02666-.77524,32.25585,1.23224.68809,1.89565.09182,2.23737-1.09953l.00828.00208c.00138-.01536.00069-.03072.00207-.04608A18.86517,18.86517,0,0,0,607.10063,545.26108Z" transform="translate(-509.50952 -283.60199)"/></svg>